<?xml version="1.0" encoding="UTF-8" standalone="no"?>
<!-- Created with Inkscape (http://www.inkscape.org/) -->

<svg
   xmlns:dc="http://purl.org/dc/elements/1.1/"
   xmlns:cc="http://creativecommons.org/ns#"
   xmlns:rdf="http://www.w3.org/1999/02/22-rdf-syntax-ns#"
   xmlns:svg="http://www.w3.org/2000/svg"
   xmlns="http://www.w3.org/2000/svg"
   xmlns:xlink="http://www.w3.org/1999/xlink"
   xmlns:sodipodi="http://sodipodi.sourceforge.net/DTD/sodipodi-0.dtd"
   xmlns:inkscape="http://www.inkscape.org/namespaces/inkscape"
   width="64px"
   height="64px"
   id="svg2860"
   sodipodi:version="0.32"
   inkscape:version="0.91 r13725"
   sodipodi:docname="Fem_ConstraintPressure.svg"
   inkscape:output_extension="org.inkscape.output.svg.inkscape"
   version="1.1">
  <defs
     id="defs2862">
    <radialGradient
       inkscape:collect="always"
       xlink:href="#linearGradient3377"
       id="radialGradient3703"
       gradientUnits="userSpaceOnUse"
       cx="135.38333"
       cy="97.369568"
       fx="135.38333"
       fy="97.369568"
       r="19.467436"
       gradientTransform="matrix(0.97435,0.2250379,-0.4623105,2.0016728,48.487554,-127.99883)" />
    <linearGradient
       id="linearGradient3377">
      <stop
         id="stop3379"
         offset="0"
         style="stop-color:#faff2b;stop-opacity:1;" />
      <stop
         id="stop3381"
         offset="1"
         style="stop-color:#ffaa00;stop-opacity:1;" />
    </linearGradient>
    <radialGradient
       inkscape:collect="always"
       xlink:href="#linearGradient3377"
       id="radialGradient3705"
       gradientUnits="userSpaceOnUse"
       cx="148.88333"
       cy="81.869568"
       fx="148.88333"
       fy="81.869568"
       r="19.467436"
       gradientTransform="matrix(1.3852588,-0.05136783,0.03705629,0.9993132,-60.392403,7.7040438)" />
    <inkscape:perspective
       sodipodi:type="inkscape:persp3d"
       inkscape:vp_x="0 : 32 : 1"
       inkscape:vp_y="0 : 1000 : 0"
       inkscape:vp_z="64 : 32 : 1"
       inkscape:persp3d-origin="32 : 21.333333 : 1"
       id="perspective2868" />
    <radialGradient
       inkscape:collect="always"
       xlink:href="#linearGradient3377-4"
       id="radialGradient3703-8"
       gradientUnits="userSpaceOnUse"
       cx="135.38333"
       cy="97.369568"
       fx="135.38333"
       fy="97.369568"
       r="19.467436"
       gradientTransform="matrix(0.97435,0.2250379,-0.4623105,2.0016728,48.487554,-127.99883)" />
    <linearGradient
       id="linearGradient3377-4">
      <stop
         id="stop3379-3"
         offset="0"
         style="stop-color:#faff2b;stop-opacity:1;" />
      <stop
         id="stop3381-0"
         offset="1"
         style="stop-color:#ffaa00;stop-opacity:1;" />
    </linearGradient>
  </defs>
  <sodipodi:namedview
     id="base"
     pagecolor="#ffffff"
     bordercolor="#666666"
     borderopacity="1.0"
     inkscape:pageopacity="0.0"
     inkscape:pageshadow="2"
     inkscape:zoom="4.515625"
     inkscape:cx="22.827693"
     inkscape:cy="28.892384"
     inkscape:current-layer="layer1"
     showgrid="true"
     inkscape:document-units="px"
     inkscape:grid-bbox="true"
     inkscape:window-width="1366"
     inkscape:window-height="702"
     inkscape:window-x="0"
     inkscape:window-y="27"
     inkscape:window-maximized="1" />
  <metadata
     id="metadata2865">
    <rdf:RDF>
      <cc:Work
         rdf:about="">
        <dc:format>image/svg+xml</dc:format>
        <dc:type
           rdf:resource="http://purl.org/dc/dcmitype/StillImage" />
        <dc:title />
      </cc:Work>
    </rdf:RDF>
  </metadata>
  <g
     id="layer1"
     inkscape:label="Layer 1"
     inkscape:groupmode="layer">
    <g
       id="g3618"
       transform="matrix(-0.25858572,0.37413494,-0.42644415,-0.20566701,114.47252,1.4993047)">
      <path
         style="display:inline;overflow:visible;visibility:visible;fill:url(#radialGradient3705);fill-opacity:1;fill-rule:evenodd;stroke:#7b5600;stroke-width:2.80832386;stroke-linecap:butt;stroke-linejoin:round;stroke-miterlimit:4;stroke-dasharray:none;stroke-dashoffset:0;stroke-opacity:1;marker:none;enable-background:accumulate"
         d="m 181.23365,60.447364 -42.39814,17.845743 23.4378,11.550566 3.43562,36.434747 33.18065,-22.82637 c 8.77297,-10.605473 11.81226,-24.974574 2.14058,-36.620683 -5.76166,-5.245683 -10.14552,-7.612661 -19.79651,-6.384003 z"
         id="rect3522"
         sodipodi:nodetypes="ccccccc"
         inkscape:connector-curvature="0" />
      <path
         style="display:inline;overflow:visible;visibility:visible;fill:url(#radialGradient3703);fill-opacity:1;fill-rule:evenodd;stroke:#ff2600;stroke-width:2.80792093;stroke-linecap:butt;stroke-linejoin:round;stroke-miterlimit:4;stroke-dasharray:none;stroke-dashoffset:0;stroke-opacity:1;marker:none;enable-background:accumulate"
         d="m 132.82272,84.89331 c 10.75418,-10.005637 22.39885,-15.05133 40.46766,1.465136 10.93804,23.295174 -0.83177,30.541064 -9.24369,38.482674 -9.97656,5.54633 -24.96587,2.99222 -33.00616,-9.97927 -5.69827,-10.29304 -6.15159,-21.332455 1.78219,-29.96854 z"
         id="rect3520"
         sodipodi:nodetypes="ccccc"
         inkscape:connector-curvature="0" />
    </g>
    <path
       style="fill:none;stroke:#ff2600;stroke-width:0.80000001;stroke-linecap:butt;stroke-linejoin:miter;stroke-miterlimit:4;stroke-dasharray:none;stroke-opacity:1"
       d="M 43.627414,39.846312 24.992268,29.09331"
       id="path2390"
       inkscape:connector-curvature="0"
       sodipodi:nodetypes="cc" />
    <path
       style="fill:none;stroke:#ff2600;stroke-width:0.80000001;stroke-linecap:butt;stroke-linejoin:miter;stroke-miterlimit:4;stroke-dasharray:none;stroke-opacity:1"
       d="M 38.464163,46.047548 19.694379,35.01827"
       id="path2400"
       inkscape:connector-curvature="0"
       sodipodi:nodetypes="cc" />
    <path
       style="fill:none;stroke:#000000;stroke-width:0.3952297;stroke-linecap:butt;stroke-linejoin:miter;stroke-miterlimit:4;stroke-dasharray:none;stroke-opacity:1"
       d="m 37.549764,61.77018 c 0.207634,-2.3892 0.731714,-11.247212 1.021756,-14.769777"
       id="path2412"
       sodipodi:nodetypes="cc"
       inkscape:connector-curvature="0" />
    <path
       style="fill:none;stroke:#000000;stroke-width:0.39408788;stroke-linecap:butt;stroke-linejoin:miter;stroke-miterlimit:4;stroke-dasharray:none;stroke-opacity:1"
       d="M 30.040717,63.211493 C 29.985544,63.088376 28.999725,49.377774 29.134181,48.4674"
       id="path2414"
       sodipodi:nodetypes="cc"
       inkscape:connector-curvature="0" />
    <path
       style="fill:none;stroke:#000000;stroke-width:0.39406565;stroke-linecap:butt;stroke-linejoin:miter;stroke-miterlimit:4;stroke-dasharray:none;stroke-opacity:1"
       d="M 23.637739,60.605814 C 23.413002,58.970609 22.614068,48.949151 22.491576,46.609742"
       id="path2418"
       sodipodi:nodetypes="cc"
       inkscape:connector-curvature="0" />
    <path
       style="fill:none;stroke:#ff2600;stroke-width:0.80000001;stroke-linecap:butt;stroke-linejoin:miter;stroke-miterlimit:4;stroke-dasharray:none;stroke-opacity:1"
       d="M 41.970178,31.21334 28.786676,47.446732"
       id="path2424"
       inkscape:connector-curvature="0"
       sodipodi:nodetypes="cc" />
    <path
       style="fill:none;stroke:#ff2600;stroke-width:0.80000001;stroke-linecap:butt;stroke-linejoin:miter;stroke-miterlimit:4;stroke-dasharray:none;stroke-opacity:1"
       d="M 22.753314,44.627485 36.257177,27.705052"
       id="path2432"
       inkscape:connector-curvature="0"
       sodipodi:nodetypes="cc" />
    <path
       style="fill:none;stroke:#000000;stroke-width:0.47040084;stroke-linecap:butt;stroke-linejoin:miter;stroke-miterlimit:4;stroke-dasharray:none;stroke-opacity:1"
       d="m 43.549606,49.009987 c -1.1137,3.681043 -5.914807,5.908879 -9.461287,6.829796 -2.776583,0.364479 -11.664583,1.5675 -15.599159,-8.195413"
       id="path2424-3"
       inkscape:connector-curvature="0"
       sodipodi:nodetypes="ccc" />
    <path
       style="fill:#ff2600;fill-opacity:1;stroke:#000000;stroke-width:0.5;stroke-linecap:butt;stroke-linejoin:miter;stroke-miterlimit:4;stroke-dasharray:none;stroke-opacity:1"
       d="m 19.187275,13.848165 -0.390076,6.878307 c -0.0024,2.027434 -0.01603,2.722904 -0.04785,4.720922 3.020801,0.115904 4.386372,-0.281197 7.539143,-0.50791 -5.414745,4.558714 -6.954506,5.502746 -12.045082,9.227222 L 1.0250475,26.171496 c 3.640107,-0.138921 4.63113,-0.340872 7.884758,-0.784888 0.128957,-2.330108 0.138585,-3.549603 0.167974,-5.810458 l -0.00702,-6.134386 c 4.4521631,0.263431 6.1637191,0.181171 10.1165131,0.406401 z"
       id="path3802"
       inkscape:connector-curvature="0"
       sodipodi:nodetypes="cccccccccc" />
    <path
       style="fill:none;stroke:#000000;stroke-width:0.47040084;stroke-linecap:butt;stroke-linejoin:miter;stroke-miterlimit:4;stroke-dasharray:none;stroke-opacity:1"
       d="M 42.519277,56.064294 C 39.516338,61.46742 37.89557,61.951453 33.935853,63.145212 31.15927,63.509691 23.038407,65.155619 19.10383,55.392705"
       id="path2424-3-5"
       inkscape:connector-curvature="0"
       sodipodi:nodetypes="ccc" />
    <path
       style="display:inline;overflow:visible;visibility:visible;fill:none;stroke:#7b5600;stroke-width:0.92551678;stroke-linecap:butt;stroke-linejoin:round;stroke-miterlimit:4;stroke-dasharray:none;stroke-dashoffset:0;stroke-opacity:1;marker:none;enable-background:accumulate"
       d="m 45.047979,34.938895 c 1.63436,7.920271 -3.156259,12.051144 -12.301741,13.529578 -8.115987,0.516662 -13.724096,-2.842198 -15.056091,-9.068378 0.221988,-6.344032 5.621035,-12.951063 13.914934,-13.378639 6.389786,-0.0076 11.653465,2.737346 13.442898,8.917439 z"
       id="rect3520-8"
       sodipodi:nodetypes="ccccc"
       inkscape:connector-curvature="0" />
    <path
       style="fill:#ff2600;fill-opacity:1;stroke:#000000;stroke-width:0.5;stroke-linecap:butt;stroke-linejoin:miter;stroke-miterlimit:4;stroke-dasharray:none;stroke-opacity:1"
       d="m 38.130895,1.3206036 -0.390076,6.878307 c -0.0024,2.0274334 -0.01603,2.7229034 -0.04785,4.7209214 3.020801,0.115904 4.386372,-0.281197 7.539143,-0.50791 -5.414745,4.558714 -6.954506,5.502746 -12.045082,9.227222 l -13.218362,-7.99521 c 3.640107,-0.138921 4.63113,-0.340872 7.884758,-0.784888 0.128957,-2.330108 0.138585,-3.5496024 0.167974,-5.8104574 L 28.0144,0.91420257 C 32.466563,1.1776336 34.178119,1.0953736 38.130913,1.3206036 Z"
       id="path3802-6"
       inkscape:connector-curvature="0"
       sodipodi:nodetypes="cccccccccc" />
    <path
       style="fill:#ff2600;fill-opacity:1;stroke:#000000;stroke-width:0.5;stroke-linecap:butt;stroke-linejoin:miter;stroke-miterlimit:4;stroke-dasharray:none;stroke-opacity:1"
       d="m 56.732972,12.171814 -0.390076,6.878307 c -0.0024,2.027434 -0.01603,2.722904 -0.04785,4.720922 3.020801,0.115904 4.386372,-0.281197 7.539143,-0.50791 -5.414745,4.558714 -6.954506,5.502746 -12.045082,9.227222 l -13.218363,-7.99521 c 3.640107,-0.138921 4.63113,-0.340872 7.884758,-0.784888 0.128957,-2.330108 0.138585,-3.549603 0.167974,-5.810458 l -0.007,-6.134386 c 4.452164,0.263431 6.16372,0.181171 10.116514,0.406401 z"
       id="path3802-0"
       inkscape:connector-curvature="0"
       sodipodi:nodetypes="cccccccccc" />
  </g>
</svg>
